<svg xmlns="http://www.w3.org/2000/svg" width="599" height="417" viewBox="0 0 599 417">
<g>
<path d="M 195.69 248.63 C195.16,247.27 195.58,242.98 198.64,218.50 C200.25,205.57 202.02,199.00 203.87,199.00 C205.28,199.00 213.58,203.48 220.50,207.98 C223.80,210.13 228.75,213.23 231.50,214.87 C240.11,220.01 246.29,224.43 247.41,226.25 C248.60,228.18 247.48,230.82 244.93,232.08 C238.85,235.08 229.86,239.00 229.04,239.00 C228.49,239.00 225.67,240.11 222.77,241.47 C206.93,248.90 196.82,251.57 195.69,248.63 Z" fill="rgba(234,120,58,1)"/>
<path d="M 136.00 271.12 C136.00,268.98 136.92,261.22 138.04,253.87 C139.16,246.52 140.54,236.90 141.11,232.50 C141.68,228.10 143.44,215.05 145.02,203.50 C146.60,191.95 148.18,179.80 148.52,176.50 C148.87,173.20 150.24,162.98 151.58,153.78 C152.91,144.59 154.00,134.19 154.00,130.68 C154.00,125.20 153.63,123.90 151.42,121.51 C149.40,119.33 149.13,118.53 150.17,117.88 C150.90,117.41 162.92,117.02 176.88,117.02 L 202.25 117.00 L 201.73 119.75 C200.94,123.99 197.39,146.41 194.10,168.00 C192.46,178.73 189.76,196.27 188.09,207.00 C186.43,217.73 184.33,231.68 183.43,238.00 C182.53,244.32 181.56,251.19 181.27,253.25 L 180.74 257.00 L 193.82 257.00 C208.18,257.00 205.19,257.81 229.13,247.44 C232.22,246.10 235.26,245.00 235.89,245.00 C236.51,245.00 237.81,244.58 238.76,244.06 C246.01,240.16 249.42,239.26 250.49,240.98 C251.10,241.97 246.44,272.48 245.43,274.12 C245.12,274.61 220.80,275.00 190.44,275.00 L 136.00 275.00 L 136.00 271.12 ZM 413.00 257.02 C402.39,254.76 393.61,248.05 388.77,238.50 C386.30,233.64 385.63,230.89 385.24,224.00 C384.39,209.16 389.16,196.00 398.90,186.26 C404.73,180.44 405.79,179.73 414.12,176.09 C430.94,168.74 453.05,171.65 463.81,182.64 C475.40,194.49 475.95,218.95 465.00,235.88 C458.11,246.53 446.28,254.86 435.02,257.00 C429.04,258.13 418.24,258.14 413.00,257.02 ZM 434.13 236.25 C436.50,234.59 439.52,230.96 441.70,227.11 C445.15,221.03 445.33,220.26 445.41,211.02 C445.51,200.58 444.65,197.81 440.36,194.64 C432.61,188.93 420.43,193.25 415.60,203.43 C413.12,208.66 411.88,219.06 413.01,225.12 C414.21,231.54 416.44,234.89 421.07,237.25 C425.90,239.71 429.56,239.43 434.13,236.25 ZM 260.39 255.99 C259.71,255.31 259.97,250.36 261.20,240.80 C262.64,229.53 262.76,226.48 261.76,225.90 C258.88,224.23 253.54,220.30 250.23,217.41 L 246.69 214.33 L 248.89 196.41 C250.10,186.56 251.75,173.55 252.55,167.50 C254.47,153.05 254.39,150.32 251.97,147.24 C250.75,145.69 250.31,144.29 250.85,143.75 C251.38,143.22 264.05,143.00 280.63,143.22 C308.17,143.59 309.79,143.72 315.73,146.00 C322.87,148.73 330.48,155.36 333.52,161.51 C335.12,164.72 335.50,167.55 335.50,176.05 C335.50,186.08 335.33,186.94 332.09,193.33 C328.50,200.39 322.99,206.94 316.86,211.41 C310.53,216.03 296.77,220.19 285.50,220.88 L 275.50 221.50 L 274.81 229.09 C273.81,240.11 271.24,254.00 269.91,255.61 C268.58,257.22 261.88,257.48 260.39,255.99 ZM 294.50 196.56 C303.57,193.44 308.45,181.80 304.58,172.53 C302.73,168.11 298.51,166.01 290.05,165.30 L 283.24 164.73 L 282.17 173.12 C281.58,177.73 280.82,184.43 280.48,188.00 C280.15,191.57 279.62,195.56 279.30,196.86 C278.73,199.21 278.78,199.22 284.78,198.53 C288.10,198.14 292.48,197.26 294.50,196.56 ZM 329.45 255.92 C328.63,254.60 329.27,248.84 332.94,224.50 C336.45,201.15 338.02,187.29 338.01,179.75 L 338.00 174.00 L 351.58 174.00 L 365.16 174.00 L 364.63 176.75 C364.34,178.26 363.80,181.52 363.42,184.00 L 362.74 188.50 L 366.90 183.25 C369.18,180.36 372.73,176.94 374.78,175.65 C378.75,173.16 390.00,171.19 390.00,173.00 C390.00,174.49 387.09,194.12 386.48,196.75 C386.02,198.73 385.33,199.00 380.72,199.00 C375.02,199.00 368.81,201.62 365.69,205.34 C363.00,208.56 360.00,215.77 360.00,219.04 C360.00,222.31 355.32,252.01 354.44,254.30 C354.12,255.13 352.88,256.07 351.68,256.39 C347.79,257.43 330.16,257.06 329.45,255.92 Z" fill="rgba(250,252,251,1)"/>
</g>
</svg>